<svg width="44" height="44" viewBox="0 0 44 44" fill="none" xmlns="http://www.w3.org/2000/svg">
<g clip-path="url(#clip0)">
<path d="M21.9913 35C21.9058 35 21.8191 34.9794 21.7411 34.9382L9.29142 28.4382C9.11267 28.3451 9 28.1598 9 27.9583V15.7708C9 15.5834 9.0975 15.409 9.25675 15.3104C9.416 15.2118 9.61642 15.2031 9.78325 15.2866L22.2329 21.5157C22.416 21.6078 22.5319 21.7952 22.5319 22V34.4583C22.5319 34.6479 22.4333 34.8234 22.2708 34.922C22.1863 34.974 22.0888 35 21.9913 35ZM10.0833 27.6301L21.4497 33.5646V22.3347L10.0833 16.6472V27.6301Z" fill="#1C2F50"/>
<path d="M22.0087 35C21.9112 35 21.8137 34.974 21.7281 34.922C21.5667 34.8234 21.467 34.6479 21.467 34.4583V22C21.467 21.7952 21.583 21.6078 21.766 21.5157L34.2157 15.2866C34.3815 15.2021 34.583 15.2107 34.7422 15.3104C34.9026 15.409 35.0001 15.5834 35.0001 15.7708V27.9583C35.0001 28.1598 34.8874 28.3451 34.7086 28.4382L22.259 34.9383C22.181 34.9794 22.0943 35 22.0087 35ZM22.5504 22.3347V33.5646L33.9167 27.6301V16.6472L22.5504 22.3347ZM34.4584 27.9583H34.4692H34.4584Z" fill="#1C2F50"/>
<mask id="path-3-inside-1" fill="white">
<path d="M9.54133 16.3126C9.34199 16.3126 9.15133 16.2032 9.05599 16.0136C8.92166 15.746 9.03108 15.421 9.29866 15.2867L21.7657 9.05755C21.9184 8.98171 22.0982 8.98171 22.2499 9.05755L34.6996 15.2867C34.9672 15.421 35.0755 15.746 34.9422 16.0136C34.8079 16.2812 34.484 16.3885 34.2153 16.2563L22.0083 10.1474L9.78399 16.2552C9.70599 16.2942 9.62366 16.3126 9.54133 16.3126Z"/>
</mask>
<path d="M9.54133 16.3126C9.34199 16.3126 9.15133 16.2032 9.05599 16.0136C8.92166 15.746 9.03108 15.421 9.29866 15.2867L21.7657 9.05755C21.9184 8.98171 22.0982 8.98171 22.2499 9.05755L34.6996 15.2867C34.9672 15.421 35.0755 15.746 34.9422 16.0136C34.8079 16.2812 34.484 16.3885 34.2153 16.2563L22.0083 10.1474L9.78399 16.2552C9.70599 16.2942 9.62366 16.3126 9.54133 16.3126Z" fill="#1C2F50"/>
<path d="M9.05599 16.0136L1.90637 19.6029L1.90876 19.6077L9.05599 16.0136ZM9.29866 15.2867L5.72294 8.1303L5.71616 8.13369L5.70938 8.13709L9.29866 15.2867ZM21.7657 9.05755L18.2083 1.89199L18.1991 1.89655L18.1899 1.90113L21.7657 9.05755ZM22.2499 9.05755L25.8296 1.90312L25.8276 1.90213L22.2499 9.05755ZM34.6996 15.2867L38.2889 8.13709L38.2793 8.13229L34.6996 15.2867ZM34.9422 16.0136L42.0919 19.6029L42.0977 19.5913L42.1035 19.5797L34.9422 16.0136ZM34.2153 16.2563L30.6351 23.4104L30.6595 23.4227L30.684 23.4347L34.2153 16.2563ZM22.0083 10.1474L25.5886 2.99323L22.0112 1.20295L18.4326 2.99095L22.0083 10.1474ZM9.78399 16.2552L6.20832 9.09878L6.20629 9.0998L9.78399 16.2552ZM9.54133 8.31263C12.2526 8.31263 14.8901 9.80836 16.2032 12.4196L1.90876 19.6077C3.41251 22.5981 6.43142 24.3126 9.54133 24.3126V8.31263ZM16.2056 12.4243C18.0729 16.1438 16.5305 20.6077 12.8879 22.4363L5.70938 8.13709C1.53169 10.2344 -0.229548 15.3483 1.90638 19.6029L16.2056 12.4243ZM12.8744 22.4431L25.3414 16.214L18.1899 1.90113L5.72294 8.1303L12.8744 22.4431ZM25.323 16.2231C23.2427 17.2559 20.7807 17.2672 18.6722 16.213L25.8276 1.90213C23.4158 0.696202 20.5941 0.707547 18.2083 1.89199L25.323 16.2231ZM18.6702 16.212L31.1199 22.4411L38.2793 8.13229L25.8296 1.90313L18.6702 16.212ZM31.1103 22.4363C27.4425 20.595 25.9472 16.1301 27.781 12.4475L42.1035 19.5797C44.2038 15.362 42.4919 10.2471 38.2889 8.13709L31.1103 22.4363ZM27.7926 12.4243C29.6477 8.72917 34.1104 7.28907 37.7466 9.07787L30.684 23.4347C34.8576 25.4879 39.9681 23.8333 42.0919 19.6029L27.7926 12.4243ZM37.7956 9.10215L25.5886 2.99323L18.4281 17.3015L30.6351 23.4104L37.7956 9.10215ZM18.4326 2.99095L6.20832 9.09878L13.3597 23.4116L25.584 17.3038L18.4326 2.99095ZM6.20629 9.0998C7.2644 8.57074 8.41026 8.31263 9.54133 8.31263V24.3126C10.8371 24.3126 12.1476 24.0177 13.3617 23.4106L6.20629 9.0998Z" fill="#1C2F50" mask="url(#path-3-inside-1)"/>
<path d="M28.5 25.25C28.201 25.25 27.9584 25.0073 27.9584 24.7083V19.0848L15.8077 13.0051C15.5401 12.8718 15.4318 12.5458 15.5661 12.2782C15.7004 12.0106 16.0254 11.9033 16.293 12.0355L28.7427 18.2647C28.9258 18.3578 29.0417 18.5453 29.0417 18.75V24.7083C29.0417 25.0073 28.799 25.25 28.5 25.25Z" fill="#1C2F50"/>
</g>
<defs>
<clipPath id="clip0">
<rect width="26" height="26" fill="white" transform="translate(9 9)"/>
</clipPath>
</defs>
</svg>
