<svg width="44" height="44" viewBox="0 0 44 44" fill="none" xmlns="http://www.w3.org/2000/svg">
<path d="M33.8125 32.7188C33.8125 33.3228 33.3228 33.8125 32.7188 33.8125H31.625V34.9062C31.625 35.5103 31.1353 36 30.5312 36C29.9272 36 29.4375 35.5103 29.4375 34.9062V33.8125H28.3438C27.7397 33.8125 27.25 33.3228 27.25 32.7188C27.25 32.1147 27.7397 31.625 28.3438 31.625H29.4375V30.5312C29.4375 29.9272 29.9272 29.4375 30.5312 29.4375C31.1353 29.4375 31.625 29.9272 31.625 30.5312V31.625H32.7188C33.3228 31.625 33.8125 32.1147 33.8125 32.7188ZM33.8125 15.6562V26.1562C33.8125 26.7603 33.3228 27.25 32.7188 27.25C32.1147 27.25 31.625 26.7603 31.625 26.1562V16.75H29.4375V20.0312C29.4375 20.6353 28.9478 21.125 28.3438 21.125C27.7397 21.125 27.25 20.6353 27.25 20.0312V16.75H16.75V20.0312C16.75 20.6353 16.2603 21.125 15.6562 21.125C15.0522 21.125 14.5625 20.6353 14.5625 20.0312V16.75H12.375V33.8125H23.9688C24.5728 33.8125 25.0625 34.3022 25.0625 34.9062C25.0625 35.5103 24.5728 36 23.9688 36H11.2812C10.6772 36 10.1875 35.5103 10.1875 34.9062V15.6562C10.1875 15.0522 10.6772 14.5625 11.2812 14.5625H14.6142C15.0487 10.8724 18.195 8 22 8C25.805 8 28.9513 10.8724 29.3858 14.5625H32.7188C33.3228 14.5625 33.8125 15.0522 33.8125 15.6562ZM27.1767 14.5625C26.7589 12.0827 24.5967 10.1875 22 10.1875C19.4033 10.1875 17.2411 12.0827 16.8233 14.5625H27.1767Z" fill="#1C2F50"/>
</svg>
