<svg width="44" height="44" viewBox="0 0 44 44" fill="none" xmlns="http://www.w3.org/2000/svg">
<path d="M22 8C14.2626 8 8 14.2615 8 22C8 24.4556 8.64044 26.8539 9.8566 28.9692L8.05276 34.5709C7.92694 34.9614 8.03033 35.3895 8.32043 35.6796C8.60776 35.9669 9.03479 36.0741 9.42914 35.9472L15.0308 34.1434C17.1461 35.3596 19.5444 36 22 36C29.7374 36 36 29.7385 36 22C36 14.2626 29.7385 8 22 8ZM22 33.8125C19.782 33.8125 17.6199 33.1936 15.7475 32.0228C15.4781 31.8544 15.1436 31.8089 14.8323 31.9091L10.7886 33.2114L12.0909 29.1677C12.1896 28.8609 12.1479 28.526 11.977 28.2525C10.8064 26.3801 10.1875 24.218 10.1875 22C10.1875 15.4866 15.4866 10.1875 22 10.1875C28.5134 10.1875 33.8125 15.4866 33.8125 22C33.8125 28.5134 28.5134 33.8125 22 33.8125ZM23.3672 22C23.3672 22.7549 22.7552 23.3672 22 23.3672C21.2448 23.3672 20.6328 22.7549 20.6328 22C20.6328 21.2448 21.2448 20.6328 22 20.6328C22.7552 20.6328 23.3672 21.2448 23.3672 22ZM28.8359 22C28.8359 22.7549 28.2239 23.3672 27.4688 23.3672C26.7136 23.3672 26.1016 22.7549 26.1016 22C26.1016 21.2448 26.7136 20.6328 27.4688 20.6328C28.2239 20.6328 28.8359 21.2448 28.8359 22ZM17.8984 22C17.8984 22.7549 17.2864 23.3672 16.5312 23.3672C15.7763 23.3672 15.1641 22.7549 15.1641 22C15.1641 21.2448 15.7763 20.6328 16.5312 20.6328C17.2864 20.6328 17.8984 21.2448 17.8984 22Z" fill="#1C2F50"/>
</svg>
