<svg width="44" height="44" viewBox="0 0 44 44" fill="none" xmlns="http://www.w3.org/2000/svg">
<g clip-path="url(#clip0)">
<path d="M31.9416 11.668C29.5761 9.30248 26.431 7.99987 23.0858 8C22.5377 8 22.0935 8.4443 22.0935 8.99234C22.0935 9.54038 22.5378 9.98468 23.0858 9.98468C25.9009 9.98455 28.5476 11.0808 30.5382 13.0714C32.529 15.062 33.6252 17.7088 33.625 20.524C33.625 21.072 34.0692 21.5163 34.6174 21.5163C35.1654 21.5163 35.6097 21.072 35.6097 20.5241C35.6098 17.1786 34.3072 14.0334 31.9416 11.668Z" fill="#1C2F50"/>
<path d="M27.8595 20.5241C27.8595 21.0721 28.3038 21.5164 28.852 21.5163C29.4 21.5163 29.8442 21.072 29.8442 20.524C29.8439 16.7981 26.8121 13.7664 23.086 13.7659C23.0858 13.7659 23.086 13.7659 23.0858 13.7659C22.5378 13.7659 22.0936 14.21 22.0935 14.7581C22.0935 15.3061 22.5377 15.7504 23.0857 15.7505C25.7178 15.7509 27.8593 17.8923 27.8595 20.5241Z" fill="#1C2F50"/>
<path d="M25.6637 25.5837C24.1511 25.5054 23.3806 26.6303 23.011 27.1707C22.7015 27.6231 22.8174 28.2406 23.2698 28.55C23.7222 28.8595 24.3397 28.7436 24.6492 28.2912C25.0858 27.6528 25.2836 27.5524 25.5519 27.5651C26.4108 27.6661 29.7933 30.1448 30.132 30.9199C30.217 31.1481 30.2138 31.3719 30.1226 31.644C29.7675 32.698 29.1797 33.4387 28.4223 33.7859C27.7028 34.1157 26.8207 34.0858 25.8719 33.6998C22.3289 32.2557 19.2336 30.2405 16.6721 27.7099C16.671 27.7088 16.6699 27.7079 16.669 27.7068C14.1437 25.1478 12.1322 22.0564 10.6905 18.5189C10.3043 17.5693 10.2744 16.6871 10.6042 15.9677C10.9514 15.2104 11.6921 14.6225 12.7452 14.2678C13.0183 14.1762 13.2416 14.1733 13.4677 14.2574C14.2456 14.5974 16.7242 17.9798 16.8242 18.829C16.8385 19.1073 16.7373 19.305 16.0994 19.7408C15.6469 20.0499 15.5306 20.6674 15.8398 21.1199C16.1489 21.5724 16.7663 21.6886 17.2189 21.3795C17.7595 21.0104 18.8842 20.2419 18.8061 18.7242C18.7201 17.1388 15.6362 12.9404 14.1626 12.3986C13.5073 12.1543 12.8179 12.1501 12.113 12.3867C10.5268 12.9208 9.38128 13.8732 8.80016 15.1408C8.23651 16.3705 8.25437 17.7972 8.85242 19.2674C10.3953 23.0531 12.554 26.3656 15.2684 29.113C15.275 29.1198 15.2817 29.1264 15.2886 29.1329C18.0341 31.8422 21.3427 33.9969 25.1234 35.538C25.8805 35.8459 26.626 36 27.3391 36C28.0104 36 28.6532 35.8635 29.2494 35.5901C30.5171 35.0091 31.4693 33.8637 32.0039 32.2765C32.2399 31.5728 32.2361 30.8838 31.9937 30.2315C31.45 28.7539 27.2516 25.67 25.6637 25.5837Z" fill="#1C2F50"/>
</g>
<defs>
<clipPath id="clip0">
<rect width="28" height="28" fill="white" transform="translate(8 8)"/>
</clipPath>
</defs>
</svg>
